<?xml version="1.0" encoding="utf-8"?>
<!-- Generator: Adobe Illustrator 18.0.0, SVG Export Plug-In . SVG Version: 6.00 Build 0)  -->
<!DOCTYPE svg PUBLIC "-//W3C//DTD SVG 1.1//EN" "http://www.w3.org/Graphics/SVG/1.1/DTD/svg11.dtd">
<svg version="1.1" id="Layer_1" xmlns="http://www.w3.org/2000/svg" xmlns:xlink="http://www.w3.org/1999/xlink" x="0px" y="0px"
	 viewBox="0 0 960 560" enable-background="new 0 0 960 560" xml:space="preserve">
<rect x="-52.4" y="-63.4" width="1112.9" height="681"/>
<g>
	<g>
		<g>
			<path fill="#FFFFFF" d="M409,183.7v8.2h-8V257h8v8.2h-25.4V257h8v-65.1h-8v-8.2H409z"/>
			<path fill="#FFFFFF" d="M469.5,265.2h-9.3V232c0-12.3-4.5-18.5-13.5-18.5c-4.7,0-8.5,1.8-11.6,5.3c-3,3.5-4.6,7.9-4.6,13.3v33.2
				h-9.3V207h9.3v9.7h0.2c4.4-7.3,10.8-11,19.1-11c6.4,0,11.2,2.1,14.6,6.2c3.4,4.1,5.1,10,5.1,17.8V265.2z"/>
			<path fill="#FFFFFF" d="M514.1,264.6c-2.2,1.2-5.1,1.8-8.7,1.8c-10.2,0-15.3-5.7-15.3-17V215h-10v-8h10v-14.2l9.3-3V207h14.7v8
				h-14.7v32.8c0,3.9,0.7,6.7,2,8.4c1.3,1.7,3.5,2.5,6.6,2.5c2.3,0,4.4-0.6,6.1-1.9V264.6z"/>
			<path fill="#FFFFFF" d="M573.3,238.4h-41.1c0.2,6.5,1.9,11.5,5.2,15c3.3,3.5,7.9,5.3,13.7,5.3c6.6,0,12.6-2.2,18.1-6.5v8.7
				c-5.1,3.7-11.9,5.6-20.3,5.6c-8.2,0-14.7-2.6-19.4-7.9c-4.7-5.3-7-12.7-7-22.3c0-9.1,2.6-16.4,7.7-22.1
				c5.1-5.7,11.5-8.5,19.1-8.5c7.6,0,13.5,2.5,17.7,7.4c4.2,4.9,6.2,11.8,6.2,20.5V238.4z M563.7,230.5c0-5.4-1.3-9.6-3.9-12.6
				c-2.6-3-6.1-4.5-10.7-4.5c-4.4,0-8.1,1.6-11.2,4.7c-3.1,3.1-5,7.3-5.7,12.3H563.7z"/>
			<path fill="#FFFFFF" d="M617.7,216.5c-1.6-1.2-4-1.9-7-1.9c-4,0-7.3,1.9-10,5.6c-2.7,3.7-4,8.9-4,15.3v29.7h-9.3V207h9.3v12h0.2
				c1.3-4.1,3.4-7.3,6.1-9.6c2.7-2.3,5.8-3.4,9.1-3.4c2.4,0,4.3,0.3,5.6,0.8V216.5z"/>
			<path fill="#FFFFFF" d="M673.5,207l-23.2,58.2h-9.1l-22-58.2h10.2l14.8,42.3c1.1,3.1,1.8,5.8,2,8.1h0.2c0.4-2.9,1-5.5,1.8-7.9
				l15.5-42.5H673.5z"/>
			<path fill="#FFFFFF" d="M688.3,192.3c-1.7,0-3.1-0.6-4.3-1.7c-1.2-1.1-1.8-2.6-1.8-4.3c0-1.7,0.6-3.2,1.8-4.3
				c1.2-1.2,2.6-1.7,4.3-1.7c1.7,0,3.2,0.6,4.3,1.7c1.2,1.2,1.8,2.6,1.8,4.3c0,1.7-0.6,3.1-1.8,4.3
				C691.5,191.7,690,192.3,688.3,192.3z M692.8,265.2h-9.3V207h9.3V265.2z"/>
			<path fill="#FFFFFF" d="M758.5,238.4h-41.1c0.2,6.5,1.9,11.5,5.2,15c3.3,3.5,7.9,5.3,13.7,5.3c6.6,0,12.6-2.2,18.1-6.5v8.7
				c-5.1,3.7-11.9,5.6-20.3,5.6c-8.2,0-14.7-2.6-19.4-7.9c-4.7-5.3-7-12.7-7-22.3c0-9.1,2.6-16.4,7.7-22.1
				c5.1-5.7,11.5-8.5,19.1-8.5c7.6,0,13.5,2.5,17.7,7.4c4.2,4.9,6.2,11.8,6.2,20.5V238.4z M748.9,230.5c0-5.4-1.3-9.6-3.9-12.6
				c-2.6-3-6.1-4.5-10.7-4.5c-4.4,0-8.1,1.6-11.2,4.7c-3.1,3.1-5,7.3-5.7,12.3H748.9z"/>
			<path fill="#FFFFFF" d="M845.8,207l-17.4,58.2h-9.7l-12-41.6c-0.5-1.6-0.8-3.4-0.9-5.4h-0.2c-0.1,1.4-0.5,3.1-1.2,5.3l-13,41.8
				h-9.3L764.5,207h9.8l12,43.7c0.4,1.3,0.6,3.1,0.8,5.2h0.5c0.1-1.7,0.5-3.4,1-5.3L802,207h8.5l12,43.9c0.4,1.4,0.7,3.1,0.9,5.2
				h0.5c0.1-1.5,0.4-3.2,1-5.2l11.8-43.9H845.8z"/>
		</g>
		<g>
			<path fill="#FFFFFF" d="M440.1,305.7h-23.5v72.8H407v-72.8h-23.5V297h56.5V305.7z"/>
			<path fill="#FFFFFF" d="M482,329.7c-1.6-1.2-4-1.9-7-1.9c-4,0-7.3,1.9-10,5.6c-2.7,3.7-4,8.9-4,15.3v29.7h-9.3v-58.2h9.3v12h0.2
				c1.3-4.1,3.4-7.3,6.1-9.6c2.7-2.3,5.8-3.4,9.1-3.4c2.4,0,4.3,0.3,5.6,0.8V329.7z"/>
			<path fill="#FFFFFF" d="M533.7,378.5h-9.3v-9.1h-0.2c-4.1,7-10,10.5-17.9,10.5c-5.8,0-10.3-1.5-13.6-4.6
				c-3.3-3.1-4.9-7.1-4.9-12.2c0-10.9,6.4-17.2,19.2-19l17.4-2.4c0-9.9-4-14.8-12-14.8c-7,0-13.3,2.4-19,7.2v-9.5
				c5.7-3.6,12.3-5.5,19.8-5.5c13.7,0,20.5,7.2,20.5,21.7V378.5z M524.4,349.1l-14,1.9c-4.3,0.6-7.6,1.7-9.8,3.2
				c-2.2,1.5-3.3,4.3-3.3,8.2c0,2.8,1,5.2,3,7c2,1.8,4.7,2.7,8.1,2.7c4.6,0,8.4-1.6,11.4-4.9c3-3.2,4.5-7.3,4.5-12.3V349.1z"/>
			<path fill="#FFFFFF" d="M590.9,375.8c-4.5,2.7-9.8,4-15.9,4c-8.3,0-15-2.7-20.1-8.1c-5.1-5.4-7.6-12.4-7.6-21
				c0-9.6,2.7-17.3,8.2-23.1c5.5-5.8,12.8-8.7,22-8.7c5.1,0,9.6,0.9,13.5,2.8v9.5c-4.3-3-8.9-4.5-13.9-4.5c-5.9,0-10.8,2.1-14.6,6.4
				c-3.8,4.3-5.7,9.9-5.7,16.8c0,6.8,1.8,12.2,5.4,16.1c3.6,3.9,8.4,5.9,14.4,5.9c5.1,0,9.8-1.7,14.3-5.1V375.8z"/>
			<path fill="#FFFFFF" d="M653.3,378.5h-13.1l-25.7-27.9h-0.2v27.9H605v-86.1h9.3V347h0.2l24.4-26.6h12.2l-27,28.1L653.3,378.5z"/>
			<path fill="#FFFFFF" d="M709.6,351.7h-41.1c0.2,6.5,1.9,11.5,5.2,15c3.3,3.5,7.9,5.3,13.7,5.3c6.6,0,12.6-2.2,18.1-6.5v8.7
				c-5.1,3.7-11.9,5.6-20.3,5.6c-8.2,0-14.7-2.6-19.4-7.9c-4.7-5.3-7-12.7-7-22.3c0-9.1,2.6-16.4,7.7-22.1
				c5.1-5.7,11.5-8.5,19.1-8.5c7.6,0,13.5,2.5,17.7,7.4c4.2,4.9,6.2,11.8,6.2,20.5V351.7z M700.1,343.8c0-5.4-1.3-9.6-3.9-12.6
				c-2.6-3-6.1-4.5-10.7-4.5c-4.4,0-8.1,1.6-11.2,4.7c-3.1,3.1-5,7.3-5.7,12.3H700.1z"/>
			<path fill="#FFFFFF" d="M754,329.7c-1.6-1.2-4-1.9-7-1.9c-4,0-7.3,1.9-10,5.6c-2.7,3.7-4,8.9-4,15.3v29.7h-9.3v-58.2h9.3v12h0.2
				c1.3-4.1,3.4-7.3,6.1-9.6c2.7-2.3,5.8-3.4,9.1-3.4c2.4,0,4.3,0.3,5.6,0.8V329.7z"/>
		</g>
	</g>
	<g>
		<g>
			<path fill="#FFFFFF" d="M320,354.5c0,0.6,0,1.2,0,1.8c-9.3,8.4-18.1,17.3-26.5,26.5c-0.6,0-1.2,0-1.8,0
				c-16.7-16.9-33.5-33.6-50.1-50.6c-3.2-3.3-5.6-3.7-9.7-1.6c-29.5,15.2-64.4,10.8-89.6-10.8c-15.5-13.3-24.7-30.2-28-50.4
				c0-7.6,0-15.2,0-22.9c3.3-20.9,13.2-38,29.5-51.6c12.2-10.1,26.3-15.7,41.9-17.9c6.4,0,12.8,0,19.2,0c0.6,0.2,1.2,0.4,1.8,0.5
				c56.7,8.5,87,67.3,60.8,118.2c-1.6,3.2-1.1,5.1,1.3,7.5C285.8,320.3,302.8,337.4,320,354.5z M244.8,258.4
				c0-27.6-22-49.9-49.3-49.9c-27.2,0-49.9,22.5-49.8,49.7c0,27.6,22.1,49.5,49.8,49.5C223.1,307.6,244.8,286,244.8,258.4z"/>
		</g>
		<g>
			<path fill="#FFFFFF" d="M319.1,306.3c0,24.4,0,48.7,0,73.1c0,9,0,18.1,0,27.1c0,3.2-1.3,4.5-4.5,4.5c-22.3,0-44.6,0-67,0
				c-34,0-68,0-102,0c-8.8,0-17.5,0-26.3,0c-2.9,0-4.2-1.3-4.3-4.2c0-0.9,0-1.8,0-2.6c0-39.7,0-79.4,0-119.1c0-34.9,0-69.7,0-104.6
				c0-9.1,0-18.2,0-27.2c0-2.7,1.4-4.1,4.1-4.1c22.1,0,44.3,0,66.4,0c27.5,0,55,0,82.5-0.1c1.6,0,2.7,0.5,3.7,1.7
				c9.2,10.4,18.4,20.7,27.7,31.1c6,6.8,12.1,13.5,18.1,20.3c1,1.2,1.6,2.4,1.6,4c0,24.6,0,49.2,0,73.8
				C319.1,288.6,319.1,297.4,319.1,306.3z M311.9,208.8c-0.7,0-1.2,0-1.7,0c-13.5,0-26.9,0-40.4,0c-3.4,0-4.7-1.3-4.7-4.7
				c0-15.5,0-30.9,0-46.4c0-0.5,0-1-0.1-1.5c-47.6,0-95.1,0-142.7,0c0,82.6,0,165,0,247.5c63.3,0,126.4,0,189.6,0
				C311.9,338.7,311.9,273.9,311.9,208.8z M307.5,201.7c-11.8-13.3-23.4-26.3-35.2-39.5c0,13.4,0,26.4,0,39.5
				C284,201.7,295.6,201.7,307.5,201.7z"/>
			<path fill="#FFFFFF" d="M292,228.5c0,1.4,0,2.7,0,4c-50,0-99.8,0-149.8,0c0-1.3,0-2.6,0-4C192.1,228.5,242,228.5,292,228.5z"/>
			<path fill="#FFFFFF" d="M292,327.5c0,1.4,0,2.6,0,4c-50,0-99.9,0-149.9,0c0-1.3,0-2.6,0-4C192,327.5,242,327.5,292,327.5z"/>
			<path fill="#FFFFFF" d="M142.1,252.3c0-1.4,0-2.6,0-4c50,0,99.9,0,149.9,0c0,1.3,0,2.6,0,4C242,252.3,192.1,252.3,142.1,252.3z"
				/>
			<path fill="#FFFFFF" d="M292,307.7c0,1.4,0,2.6,0,4c-50,0-99.9,0-149.9,0c0-1.4,0-2.6,0-4C192.1,307.7,242,307.7,292,307.7z"/>
			<path fill="#FFFFFF" d="M229.3,291.7c-0.5,0.1-0.9,0.3-1.4,0.3c-28.1,0-56.2,0-84.4,0c-0.5,0-0.9,0-1.4,0c0-1.4,0-2.7,0-4.2
				c0.5,0,1,0,1.4,0c21.5,0,43.1,0,64.6,0c5.3,0,10.6,0,15.9,0c0.5,0,1.1,0.1,1.6,0.2C226.8,289.2,228.1,290.4,229.3,291.7z"/>
			<path fill="#FFFFFF" d="M206,268.3c0.4-0.1,0.9-0.3,1.3-0.3c7.3,0,14.6,0.1,21.8,0.1c20.4,0,40.8-0.1,61.3-0.1c0.5,0,1,0,1.6,0
				c0,1.4,0,2.7,0,4.2c-0.5,0-1,0-1.5,0c-21.3,0-42.6,0-63.9,0c-5.2,0-10.3,0-15.5,0c-0.5,0-1-0.1-1.5-0.2
				C208.4,270.8,207.2,269.6,206,268.3z"/>
			<path fill="#FFFFFF" d="M206,268.3c1.2,1.2,2.4,2.5,3.7,3.7c-0.4,0.1-0.8,0.2-1.2,0.2c-21.7,0-43.5,0-65.2,0c-0.4,0-0.7,0-1.2,0
				c0-1.4,0-2.7,0-4.2c0.5,0,1,0,1.5,0c20.2,0,40.4,0,60.6,0C204.8,268,205.4,268.2,206,268.3z"/>
			<path fill="#FFFFFF" d="M229.3,291.7c-1.2-1.2-2.4-2.4-3.7-3.7c0.3-0.1,0.7-0.2,1-0.2c21.4,0,42.8,0,64.2,0c0.3,0,0.6,0,1.1,0
				c0,1.4,0,2.7,0,4.1c-0.5,0-0.9,0.1-1.4,0.1c-19.8,0-39.7,0-59.5,0C230.4,292,229.9,291.8,229.3,291.7z"/>
		</g>
	</g>
</g>
</svg>
