<!DOCTYPE svg PUBLIC "-//W3C//DTD SVG 20010904//EN" "http://www.w3.org/TR/2001/REC-SVG-20010904/DTD/svg10.dtd">
<svg version="1.0" xmlns="http://www.w3.org/2000/svg" width="600px" height="500px" viewBox="0 0 6000 5000" preserveAspectRatio="xMidYMid meet">
<g id="layer101" fill="#ffffff" stroke="none">
 <path d="M2745 4270 c-284 -46 -523 -137 -743 -283 -560 -373 -862 -1037 -777 -1712 112 -895 872 -1565 1775 -1565 565 0 1095 265 1434 717 557 742 445 1809 -252 2419 -388 339 -945 504 -1437 424z m515 -75 c553 -87 1042 -450 1280 -950 121 -253 170 -468 170 -745 0 -278 -50 -497 -170 -745 -253 -522 -737 -873 -1317 -954 -106 -15 -340 -15 -446 0 -766 107 -1355 688 -1473 1454 -18 116 -18 374 0 490 90 586 453 1068 990 1315 191 88 431 145 641 153 71 2 261 -8 325 -18z"/>
 <path d="M3031 2680 c-94 -22 -161 -111 -161 -214 1 -173 157 -275 307 -201 77 39 107 89 111 185 3 58 0 85 -13 111 -29 57 -76 98 -129 114 -54 16 -65 17 -115 5z m148 -68 c42 -31 71 -91 71 -147 0 -62 -23 -109 -73 -149 -33 -27 -47 -31 -96 -31 -48 0 -64 5 -95 29 -123 94 -86 293 61 324 46 10 98 0 132 -26z"/>
 <path d="M3455 2680 c-43 -10 -70 -26 -94 -56 -26 -33 -27 -50 -1 -57 13 -3 21 1 25 14 10 30 59 59 103 59 51 0 92 -38 92 -85 0 -38 -15 -53 -98 -96 -74 -38 -102 -69 -102 -116 0 -45 14 -69 50 -88 72 -37 160 -2 160 64 0 22 -31 51 -53 51 -22 0 -22 -29 -1 -45 15 -10 15 -13 -1 -28 -22 -23 -67 -21 -93 3 -44 42 -21 82 73 126 72 35 105 73 105 125 0 90 -76 150 -165 129z"/>
 <path d="M2438 2478 c-3 -179 -4 -191 -20 -175 -25 25 -58 23 -51 -4 11 -41 45 -51 152 -47 89 3 102 6 125 27 52 49 58 145 11 195 -44 47 -155 59 -155 16 0 -17 7 -20 48 -20 38 0 53 -5 70 -23 24 -25 30 -84 12 -117 -12 -22 -61 -40 -111 -40 l-39 0 0 190 c0 183 -1 190 -20 190 -19 0 -20 -8 -22 -192z"/>
 <path d="M2750 2460 l0 -210 25 0 25 0 0 210 0 210 -25 0 -25 0 0 -210z"/>
 </g>

</svg>