<?xml version="1.0" encoding="UTF-8" standalone="no"?>
<!-- Created with Inkscape (http://www.inkscape.org/) -->

<svg
   xmlns:dc="http://purl.org/dc/elements/1.1/"
   xmlns:cc="http://creativecommons.org/ns#"
   xmlns:rdf="http://www.w3.org/1999/02/22-rdf-syntax-ns#"
   xmlns:svg="http://www.w3.org/2000/svg"
   xmlns="http://www.w3.org/2000/svg"
   xmlns:sodipodi="http://sodipodi.sourceforge.net/DTD/sodipodi-0.dtd"
   xmlns:inkscape="http://www.inkscape.org/namespaces/inkscape"
   id="svg3355"
   version="1.1"
   inkscape:version="0.91 r13725"
   xml:space="preserve"
   width="1200"
   height="700"
   viewBox="0 0 1200 700"
   sodipodi:docname="transparent-interview-tracker-logo.svg"><metadata
     id="metadata3361"><rdf:RDF><cc:Work
         rdf:about=""><dc:format>image/svg+xml</dc:format><dc:type
           rdf:resource="http://purl.org/dc/dcmitype/StillImage" /><dc:title></dc:title></cc:Work></rdf:RDF></metadata><defs
     id="defs3359"><clipPath
       clipPathUnits="userSpaceOnUse"
       id="clipPath3371"><path
         d="M 0,560 960,560 960,0 0,0 0,560 Z"
         id="path3373"
         inkscape:connector-curvature="0" /></clipPath></defs><sodipodi:namedview
     pagecolor="#ffffff"
     bordercolor="#666666"
     borderopacity="1"
     objecttolerance="10"
     gridtolerance="10"
     guidetolerance="10"
     inkscape:pageopacity="0"
     inkscape:pageshadow="2"
     inkscape:window-width="1139"
     inkscape:window-height="621"
     id="namedview3357"
     showgrid="false"
     inkscape:zoom="0.69857143"
     inkscape:cx="392.43354"
     inkscape:cy="350"
     inkscape:window-x="0"
     inkscape:window-y="0"
     inkscape:window-maximized="0"
     inkscape:current-layer="g3363" /><g
     id="g3363"
     inkscape:groupmode="layer"
     inkscape:label="vectr1"
     transform="matrix(1.25,0,0,-1.25,0,700)"><path
       d="M 0,0 960,0 960,560 0,560 0,0 Z"
       style="fill:#ffffff;fill-opacity:0;fill-rule:nonzero;stroke:none"
       id="path3365"
       inkscape:connector-curvature="0" /><g
       id="g3367"><g
         id="g3369"
         clip-path="url(#clipPath3371)"><g
           id="g3375"
           transform="translate(238.8346,371.3507)"><path
             d="M 0,0 40.214,0 C 26.662,15.177 13.685,29.71 0,45.036 L 0,0 Z m -130.754,-105.541 c 22.425,-26.234 67.217,-21.149 81.894,0 l -81.894,0 z m -3.735,74.534 90.114,0 c -23.28,31.041 -69.476,28.669 -90.114,0 m -10.973,-51.477 c 2.821,-5.601 4.959,-10.451 7.697,-14.935 0.896,-1.468 3.344,-2.805 5.09,-2.815 28.825,-0.172 57.652,-0.142 86.479,-0.062 1.323,0.003 3.319,0.501 3.853,1.43 2.936,5.106 5.514,10.418 8.588,16.382 l -111.707,0 z m 112.586,28.221 c -2.269,5.634 -4.108,10.762 -6.461,15.643 -0.575,1.194 -2.83,2.23 -4.317,2.236 -30.622,0.128 -61.245,0.113 -91.867,0.037 -1.326,-0.003 -3.415,-0.493 -3.848,-1.387 -2.535,-5.229 -4.683,-10.646 -7.187,-16.529 l 113.68,0 z m -113.684,-23.004 113.732,0 0,17.62 -113.732,0 0,-17.62 z m 137.985,129.383 -165.386,0 0,-74.255 c 1.134,1.737 1.777,2.656 2.355,3.615 19.921,33.029 57.472,54.711 103.134,44.342 30.103,-6.835 52.081,-24.403 65.143,-52.526 1.788,-3.848 3.792,-5.109 7.808,-4.898 5.934,0.312 11.896,0.081 17.798,0.081 0.215,-4.614 0.216,-4.701 -3.197,-4.74 -5.973,-0.069 -11.947,-0.019 -18.145,-0.019 1.386,-6.251 2.673,-12.057 4.045,-18.243 4.746,0 9.395,-0.119 14.034,0.038 3.625,0.123 4.227,-1.435 3.016,-4.965 l -16.96,0 0,-17.977 c 4.814,0 9.301,-0.136 13.774,0.042 3.909,0.154 4.6,-1.444 3.054,-5.165 l -18.081,0 c -1.762,-6.137 -3.381,-11.778 -5.158,-17.968 l 23.372,0 c 1.284,-3.701 0.112,-4.9 -3.324,-4.81 -6.327,0.164 -12.672,0.255 -18.983,-0.095 -1.687,-0.093 -3.97,-1.509 -4.794,-2.981 -3.6,-6.428 1.772,-14.915 9.3,-15.006 5.963,-0.073 11.927,-0.015 17.822,-0.015 0.578,-4.552 0.58,-4.65 -2.728,-4.732 -4.168,-0.103 -8.34,-0.025 -12.143,-0.025 13.003,-13.114 25.703,-25.922 38.212,-38.537 l 0,158.064 c -2.188,0 -3.997,0 -5.806,0 -13.495,0 -26.989,-0.03 -40.483,0.014 -6.738,0.022 -7.731,1.07 -7.731,7.882 0.001,13.826 0.034,27.652 0.051,41.478 0.005,3.776 0.001,7.552 0.001,11.401 m 54.16,-242.344 c -6.176,-5.89 -12.363,-11.377 -18.03,-17.357 -3.15,-3.323 -5.108,-3.556 -8.413,-0.16 -16.494,16.946 -33.233,33.655 -49.85,50.482 -6.586,6.67 -13.641,8.051 -22.284,4.398 -20.194,-8.536 -41.12,-10.581 -61.971,-3.909 -11.571,3.702 -22.869,6.55 -34.992,5.71 -0.283,-0.02 -0.588,0.266 -1.085,0.507 l 0,4.269 10.284,0 c -6.38,5.718 -12.837,10.733 -18.328,16.645 -5.458,5.875 -9.945,12.653 -14.93,19.129 l 0,-124.189 219.599,0 0,44.475 z m -109.884,-53.13 c -36.666,0 -73.332,-0.001 -109.999,0.002 -7.78,0 -8.577,0.766 -8.579,8.527 -0.011,47.333 -0.005,94.665 -0.005,141.998 -0.001,47.969 -0.002,95.937 0.001,143.906 0.001,8.95 0.56,9.494 9.699,9.495 54.666,10e-4 109.332,-0.047 163.997,0.087 4.59,0.012 7.775,-1.389 10.794,-4.824 16.057,-18.274 32.272,-36.411 48.545,-54.494 2.745,-3.05 3.899,-6.251 3.892,-10.358 -0.095,-53.499 -0.063,-106.999 -0.063,-160.498 0.001,-22.066 0.014,-44.132 -0.008,-66.198 -0.007,-7.097 -0.58,-7.638 -7.775,-7.639 -36.833,-0.008 -73.666,-0.004 -110.499,-0.004"
             style="fill:#ffffff;fill-opacity:1;fill-rule:nonzero;stroke:none"
             id="path3377"
             inkscape:connector-curvature="0" /></g><g
           id="g3379"
           transform="translate(857.0842,348.3499)"><path
             d="m 0,0 c -4.869,-15.701 -9.962,-31.338 -14.467,-47.143 -1.313,-4.605 -4.046,-4.131 -7.4,-4.293 -3.476,-0.169 -5.243,0.712 -6.312,4.41 -5.642,19.508 -11.628,38.918 -17.478,58.367 -0.421,1.4 -0.706,2.842 -1.261,5.107 3.353,0 6.277,0.198 9.146,-0.113 0.935,-0.102 2.231,-1.39 2.508,-2.375 4.917,-17.458 9.702,-34.953 14.641,-52.9 0.582,1.935 1.097,3.683 1.632,5.424 4.692,15.279 9.586,30.5 13.957,45.87 1.226,4.314 3.785,4.007 7.024,4.212 3.379,0.215 4.577,-1.211 5.382,-4.248 4.474,-16.891 9.133,-33.733 14.139,-52.097 5.238,19.403 10.138,37.551 15.104,55.945 l 10.35,0 c -0.992,-3.545 -1.83,-6.719 -2.767,-9.864 -5.04,-16.91 -10.39,-33.736 -14.998,-50.763 -1.512,-5.589 -3.87,-7.911 -9.505,-6.854 -1.115,0.209 -2.303,0.03 -3.898,0.03 C 10.836,-34.14 5.908,-17.111 0.98,-0.083 0.653,-0.055 0.327,-0.028 0,0"
             style="fill:#ffffff;fill-opacity:1;fill-rule:nonzero;stroke:none"
             id="path3381"
             inkscape:connector-curvature="0" /></g><g
           id="g3383"
           transform="translate(625.0431,265.3819)"><path
             d="m 0,0 10.579,0 0,-63.276 c 6.166,6.692 11.408,12.381 16.649,18.071 1.579,1.716 3.451,3.248 4.677,5.187 4.763,7.532 11.594,9.203 20.624,7.03 -10.189,-10.651 -20.205,-21.12 -30.579,-31.965 10.953,-11.282 21.784,-22.438 33.546,-34.553 -8.038,0.077 -14.632,-1.924 -20.249,5.207 -7.256,9.212 -15.78,17.424 -24.639,27.022 l 0,-32.121 L 0,-99.398 0,0 Z"
             style="fill:#ffffff;fill-opacity:1;fill-rule:nonzero;stroke:none"
             id="path3385"
             inkscape:connector-curvature="0" /></g><g
           id="g3387"
           transform="translate(791.4007,337.9806)"><path
             d="M 0,0 C 0.381,11.397 -5.652,18.714 -15.386,19.099 -26.247,19.529 -35.058,11.292 -35.52,0 L 0,0 Z m 11.163,-9.833 -46.628,0 c -1.964,-21.347 15.807,-28.442 41.491,-17.082 1.908,-7.821 1.078,-10.083 -6.002,-12.39 -13.169,-4.291 -26.24,-5.479 -37.578,4.668 -8.411,7.529 -9.86,17.835 -9.772,28.342 0.067,7.929 1.998,15.454 6.898,22.017 7.929,10.623 20.349,14.856 33.209,11.14 10.57,-3.054 17.513,-12.771 18.351,-25.902 0.21,-3.306 0.031,-6.637 0.031,-10.793"
             style="fill:#ffffff;fill-opacity:1;fill-rule:nonzero;stroke:none"
             id="path3389"
             inkscape:connector-curvature="0" /></g><g
           id="g3391"
           transform="translate(576.3254,338.0042)"><path
             d="M 0,0 C 0.702,11.678 -5.966,19.199 -16.652,19.116 -26.854,19.037 -35.826,9.76 -35.075,0 L 0,0 Z m 10.804,-9.792 -46.531,0 c -0.053,-8.424 1.959,-15.646 8.921,-19.857 11.371,-6.877 22.347,-3.453 32.809,2.958 2.251,-8.156 1.334,-10.46 -6.609,-12.922 -13.062,-4.049 -25.989,-4.959 -37.069,5.155 -7.883,7.195 -9.458,17.001 -9.56,26.968 -0.092,8.989 2.217,17.403 7.984,24.683 10.342,13.056 31.284,14.788 42.558,3.382 6.377,-6.452 9.48,-18.664 7.497,-30.367"
             style="fill:#ffffff;fill-opacity:1;fill-rule:nonzero;stroke:none"
             id="path3393"
             inkscape:connector-curvature="0" /></g><g
           id="g3395"
           transform="translate(698.9374,206.4411)"><path
             d="M 0,0 35.721,0 C 36.17,11.188 30.702,18.174 20.994,19.209 10.612,20.315 2.073,12.635 0,0 m 46.699,-9.517 -46.86,0 c -0.185,-8.198 1.755,-15.242 8.283,-19.599 11.575,-7.725 22.811,-3.908 33.601,2.561 2.131,-8.13 1.353,-10.273 -6.137,-12.779 -13.002,-4.35 -25.843,-5.249 -37.187,4.455 -5.415,4.633 -8.161,10.895 -9.177,17.825 -2.063,14.077 -0.787,27.358 10.516,37.683 9.036,8.255 19.775,9.487 30.777,5.523 C 41.041,22.36 45.294,13.277 46.62,2.795 47.111,-1.09 46.699,-5.088 46.699,-9.517"
             style="fill:#ffffff;fill-opacity:1;fill-rule:nonzero;stroke:none"
             id="path3397"
             inkscape:connector-curvature="0" /></g><g
           id="g3399"
           transform="translate(530.2572,199.5214)"><path
             d="m 0,0 c -5.028,-0.638 -10.1,-1.198 -15.143,-1.957 -2.447,-0.369 -5.17,-0.573 -7.173,-1.812 -2.777,-1.718 -6.167,-3.89 -7.232,-6.66 -3.349,-8.72 2.3,-15.989 11.704,-16.02 C -4.935,-26.49 3.028,-14.903 0,0 m -34.664,19.971 c -1.586,7.703 -0.926,10.05 7.141,12.097 6.953,1.765 14.439,2.635 21.576,2.17 10.015,-0.653 16.8,-8.119 17.188,-18.844 0.583,-16.107 0.151,-32.251 0.151,-48.801 l -10.184,0 c -0.164,2.663 -0.332,5.394 -0.552,8.971 -1.42,-1.511 -2.352,-2.486 -3.265,-3.478 -7.456,-8.101 -20.231,-10.191 -29.735,-4.71 -6.543,3.775 -9.288,9.77 -9.153,17.127 0.141,7.682 2.78,14.601 10.158,17.504 6.852,2.697 14.37,3.743 21.634,5.332 3.226,0.706 6.551,0.959 9.762,1.408 2.222,10.046 -3.815,18.113 -13.63,16.957 -7.174,-0.845 -14.105,-3.757 -21.091,-5.733"
             style="fill:#ffffff;fill-opacity:1;fill-rule:nonzero;stroke:none"
             id="path3401"
             inkscape:connector-curvature="0" /></g><g
           id="g3403"
           transform="translate(422.2598,297.1591)"><path
             d="m 0,0 -10.433,0 0,67.269 10.149,0 c 0.149,-3.132 0.302,-6.334 0.501,-10.516 5.726,7.786 12.396,12.127 21.407,12.163 12.697,0.052 21.319,-6.546 22.611,-19.159 1.167,-11.387 0.791,-22.934 1.023,-34.413 0.1,-4.951 0.017,-9.907 0.017,-15.143 l -10.851,0 c 0,11.21 0.072,22.315 -0.036,33.419 -0.042,4.311 -0.22,8.657 -0.818,12.92 C 32.674,52.936 29.552,58.011 22.86,59.499 16.038,61.015 10.017,59.128 5.307,53.707 1.115,48.884 0,43.105 0,36.962 0.001,26.635 0,16.308 0,5.981 L 0,0 Z"
             style="fill:#ffffff;fill-opacity:1;fill-rule:nonzero;stroke:none"
             id="path3405"
             inkscape:connector-curvature="0" /></g><g
           id="g3407"
           transform="translate(395.0192,250.0849)"><path
             d="m 0,0 -27.041,0 0,9.793 65.078,0 0,-9.596 -26.834,0 0,-84.18 L 0,-83.983 0,0 Z"
             style="fill:#ffffff;fill-opacity:1;fill-rule:nonzero;stroke:none"
             id="path3409"
             inkscape:connector-curvature="0" /></g><g
           id="g3411"
           transform="translate(396.9273,297.2976)"><path
             d="m 0,0 -28.902,0 0,9.274 c 2.907,0.164 5.655,0.318 8.699,0.489 l 0,74.854 c -2.863,0.155 -5.609,0.305 -8.67,0.471 l 0,9.156 28.883,0 0,-9.101 c -2.861,-0.177 -5.624,-0.348 -8.717,-0.54 l 0,-74.819 C -5.916,9.636 -3.165,9.489 0,9.321 L 0,0 Z"
             style="fill:#ffffff;fill-opacity:1;fill-rule:nonzero;stroke:none"
             id="path3413"
             inkscape:connector-curvature="0" /></g><g
           id="g3415"
           transform="translate(704.1353,364.6033)"><path
             d="m 0,0 c -1.435,-3.716 -2.592,-6.796 -3.809,-9.852 -7.206,-18.088 -14.511,-36.138 -21.557,-54.289 -1.15,-2.963 -2.826,-3.836 -5.571,-3.372 -2.63,0.444 -5.912,-1.605 -7.504,2.7 -7.731,20.917 -15.676,41.755 -23.525,62.628 -0.221,0.588 -0.218,1.259 -0.402,2.407 2.542,0 4.843,-0.213 7.088,0.05 3.281,0.386 4.651,-1.109 5.663,-4.071 5.911,-17.293 12.001,-34.525 18.137,-52.082 3.394,9.467 6.686,18.704 10.017,27.928 2.656,7.358 5.784,14.58 7.894,22.089 1.477,5.251 4.238,6.927 9.235,6.104 C -3.201,0.054 -2.028,0.104 0,0"
             style="fill:#ffffff;fill-opacity:1;fill-rule:nonzero;stroke:none"
             id="path3417"
             inkscape:connector-curvature="0" /></g><g
           id="g3419"
           transform="translate(501.7156,364.8733)"><path
             d="m 0,0 17.176,0 0,-9.19 -16.632,0 c 0,-8.673 -0.01,-16.622 0.004,-24.57 0.009,-5.158 -0.11,-10.323 0.119,-15.472 0.42,-9.426 5.051,-12.607 14.307,-10.062 0.606,0.167 1.216,0.324 1.825,0.485 2.063,-7.887 0.781,-9.662 -7.066,-10.1 -13.127,-0.733 -19.67,5.133 -19.873,18.332 -0.207,13.463 -0.046,26.933 -0.046,40.899 -3.907,0.183 -7.495,0.351 -11.44,0.535 l 0,8.92 11.394,0 c 0,3.979 0.325,7.454 -0.081,10.84 -0.538,4.482 1.032,6.882 5.523,7.485 1.294,0.174 2.532,0.766 4.79,1.482 L 0,0 Z"
             style="fill:#ffffff;fill-opacity:1;fill-rule:nonzero;stroke:none"
             id="path3421"
             inkscape:connector-curvature="0" /></g><g
           id="g3423"
           transform="translate(608.2657,178.3297)"><path
             d="m 0,0 c 0.613,-10.603 -0.195,-11.629 -10.197,-13.369 -26.965,-4.69 -45.135,15.197 -39.247,42.791 5.009,23.473 27.203,31.028 46.365,25.007 1.453,-0.457 2.807,-2.782 3.256,-4.488 0.561,-2.128 0.135,-4.516 0.135,-6.931 -18.419,6.385 -27.357,4.962 -34.813,-5.326 -6.793,-9.375 -6.526,-25.952 0.562,-34.819 C -26.821,-6.042 -17.051,-6.916 0,0"
             style="fill:#ffffff;fill-opacity:1;fill-rule:nonzero;stroke:none"
             id="path3425"
             inkscape:connector-curvature="0" /></g><g
           id="g3427"
           transform="translate(447.0827,233.0486)"><path
             d="m 0,0 10.375,0 0,-12.889 c 1.841,2.972 2.859,4.927 4.166,6.665 3.837,5.102 8.785,7.839 15.415,7.57 3.82,-0.155 5.465,-1.47 4.956,-5.381 -0.249,-1.915 -0.043,-3.89 -0.043,-5.981 -13.839,3.157 -21.677,-1.716 -23.395,-15.387 -1.196,-9.52 -0.695,-19.257 -0.892,-28.898 -0.084,-4.125 -0.014,-8.253 -0.014,-12.644 L 0,-66.945 0,0 Z"
             style="fill:#ffffff;fill-opacity:1;fill-rule:nonzero;stroke:none"
             id="path3429"
             inkscape:connector-curvature="0" /></g><g
           id="g3431"
           transform="translate(773.422,166.0202)"><path
             d="m 0,0 -10.47,0 0,66.951 10.242,0 0,-10.936 c 0.289,-0.091 0.578,-0.183 0.867,-0.274 0.914,1.431 1.79,2.888 2.75,4.288 3.843,5.609 8.951,8.616 15.984,8.341 3.793,-0.148 5.47,-1.432 4.919,-5.367 -0.27,-1.931 -0.047,-3.931 -0.047,-6.001 C 9.683,60.334 0.999,53.685 0.277,38.447 -0.235,27.651 0.062,16.817 0.002,6.001 -0.009,4.198 0,2.395 0,0"
             style="fill:#ffffff;fill-opacity:1;fill-rule:nonzero;stroke:none"
             id="path3433"
             inkscape:connector-curvature="0" /></g><g
           id="g3435"
           transform="translate(614.9811,353.5612)"><path
             d="m 0,0 c 8.697,11.512 14.916,14.49 24.433,10.892 l 0,-10.335 C 18.622,2.629 12.97,3.405 7.97,-0.89 2.514,-5.578 0.661,-11.859 0.449,-18.747 0.26,-24.904 0.223,-31.067 0.18,-37.228 0.137,-43.377 0.171,-49.526 0.171,-56.083 l -10.404,0 0,66.99 L 0,10.907 0,0 Z"
             style="fill:#ffffff;fill-opacity:1;fill-rule:nonzero;stroke:none"
             id="path3437"
             inkscape:connector-curvature="0" /></g><path
           d="m 716.207,364.55 10.173,0 0,-67.149 -10.173,0 0,67.149 z"
           style="fill:#ffffff;fill-opacity:1;fill-rule:nonzero;stroke:none"
           id="path3439"
           inkscape:connector-curvature="0" /><g
           id="g3441"
           transform="translate(728.4611,388.9218)"><path
             d="m 0,0 c 0.144,-3.748 -2.916,-6.902 -6.793,-7.001 -3.962,-0.102 -7.007,2.724 -7.116,6.605 -0.11,3.883 2.842,7.006 6.701,7.091 C -3.443,6.778 -0.143,3.713 0,0"
             style="fill:#ffffff;fill-opacity:1;fill-rule:nonzero;stroke:none"
             id="path3443"
             inkscape:connector-curvature="0" /></g></g></g></g></svg>